<svg width="304" height="304" viewBox="0 0 304 304" fill="none" xmlns="http://www.w3.org/2000/svg">
<line x1="285.536" y1="111.536" x2="198.536" y2="198.536" stroke="black" stroke-width="10"/>
<line x1="195" y1="26" x2="108" y2="26" stroke="black" stroke-width="10"/>
<line x1="17.4645" y1="104.464" x2="104.464" y2="17.4645" stroke="black" stroke-width="10"/>
<line x1="25.4721" y1="105.764" x2="112.472" y2="279.764" stroke="black" stroke-width="10"/>
<line x1="17.4645" y1="191.464" x2="104.464" y2="104.464" stroke="black" stroke-width="10"/>
<line x1="16.5279" y1="192.764" x2="103.528" y2="18.7639" stroke="black" stroke-width="10"/>
<line x1="111.536" y1="17.4645" x2="285.536" y2="191.464" stroke="black" stroke-width="10"/>
<line x1="198.536" y1="24.5355" x2="111.536" y2="111.536" stroke="black" stroke-width="10"/>
<line x1="198.536" y1="17.4645" x2="285.536" y2="104.464" stroke="black" stroke-width="10"/>
<line x1="286.472" y1="110.236" x2="199.472" y2="284.236" stroke="black" stroke-width="10"/>
<line x1="111.536" y1="191.464" x2="198.536" y2="278.464" stroke="black" stroke-width="10"/>
<line x1="191.367" y1="198.435" x2="104.367" y2="106.435" stroke="black" stroke-width="10"/>
<line x1="199.472" y1="18.7639" x2="286.472" y2="192.764" stroke="black" stroke-width="10"/>
<line x1="195" y1="287" x2="108" y2="284" stroke="black" stroke-width="10"/>
<line x1="191.464" y1="278.464" x2="280.586" y2="193.586" stroke="black" stroke-width="10"/>
<line x1="282" y1="200" x2="21" y2="197" stroke="black" stroke-width="10"/>
<line x1="104.464" y1="285.536" x2="19.5858" y2="196.414" stroke="black" stroke-width="10"/>
<line x1="104.464" y1="278.464" x2="193.586" y2="193.586" stroke="black" stroke-width="10"/>
<line x1="104.485" y1="191.444" x2="193.594" y2="107.578" stroke="black" stroke-width="10"/>
<line x1="104.485" y1="198.556" x2="19.594" y2="110.422" stroke="black" stroke-width="10"/>
<line x1="20.9808" y1="104" x2="281.992" y2="106" stroke="black" stroke-width="10"/>
<mask id="mask0_0_1" style="mask-type:alpha" maskUnits="userSpaceOnUse" x="0" y="0" width="304" height="304">
<path d="M130 21.5C130 33.3741 120.374 43 108.5 43C96.6259 43 87 33.3741 87 21.5C87 9.62588 96.6259 0 108.5 0C120.374 0 130 9.62588 130 21.5Z" fill="#D9D9D9"/>
<path d="M217 21.5C217 33.3741 207.374 43 195.5 43C183.626 43 174 33.3741 174 21.5C174 9.62588 183.626 0 195.5 0C207.374 0 217 9.62588 217 21.5Z" fill="#D9D9D9"/>
<path d="M217 108.5C217 120.374 207.374 130 195.5 130C183.626 130 174 120.374 174 108.5C174 96.6259 183.626 87 195.5 87C207.374 87 217 96.6259 217 108.5Z" fill="#D9D9D9"/>
<path d="M130 108.5C130 120.374 120.374 130 108.5 130C96.6259 130 87 120.374 87 108.5C87 96.6259 96.6259 87 108.5 87C120.374 87 130 96.6259 130 108.5Z" fill="#D9D9D9"/>
<path d="M43 108.5C43 120.374 33.3741 130 21.5 130C9.62588 130 0 120.374 0 108.5C0 96.6259 9.62588 87 21.5 87C33.3741 87 43 96.6259 43 108.5Z" fill="#D9D9D9"/>
<path d="M304 108.5C304 120.374 294.374 130 282.5 130C270.626 130 261 120.374 261 108.5C261 96.6259 270.626 87 282.5 87C294.374 87 304 96.6259 304 108.5Z" fill="#D9D9D9"/>
<path d="M130 195.5C130 207.374 120.374 217 108.5 217C96.6259 217 87 207.374 87 195.5C87 183.626 96.6259 174 108.5 174C120.374 174 130 183.626 130 195.5Z" fill="#D9D9D9"/>
<path d="M43 195.5C43 207.374 33.3741 217 21.5 217C9.62588 217 0 207.374 0 195.5C0 183.626 9.62588 174 21.5 174C33.3741 174 43 183.626 43 195.5Z" fill="#D9D9D9"/>
<path d="M217 195.5C217 207.374 207.374 217 195.5 217C183.626 217 174 207.374 174 195.5C174 183.626 183.626 174 195.5 174C207.374 174 217 183.626 217 195.5Z" fill="#D9D9D9"/>
<path d="M304 195.5C304 207.374 294.374 217 282.5 217C270.626 217 261 207.374 261 195.5C261 183.626 270.626 174 282.5 174C294.374 174 304 183.626 304 195.5Z" fill="#D9D9D9"/>
<path d="M217 282.5C217 294.374 207.374 304 195.5 304C183.626 304 174 294.374 174 282.5C174 270.626 183.626 261 195.5 261C207.374 261 217 270.626 217 282.5Z" fill="#D9D9D9"/>
<path d="M130 282.5C130 294.374 120.374 304 108.5 304C96.6259 304 87 294.374 87 282.5C87 270.626 96.6259 261 108.5 261C120.374 261 130 270.626 130 282.5Z" fill="#D9D9D9"/>
</mask>
<g mask="url(#mask0_0_1)">
<rect x="-28" y="-27" width="366" height="356" fill="url(#paint0_linear_0_1)"/>
</g>
<defs>
<linearGradient id="paint0_linear_0_1" x1="338" y1="130.5" x2="-28" y2="130.5" gradientUnits="userSpaceOnUse">
<stop offset="0.265" stop-color="#B6B6B6"/>
<stop offset="0.725" stop-color="#2B2B2B"/>
</linearGradient>
</defs>
</svg>
